<svg width="64" height="64" viewBox="0 0 64 64" fill="none" xmlns="http://www.w3.org/2000/svg">
<path d="M32 0C36.2023 5.01119e-08 40.3635 0.827705 44.2459 2.43586C48.1283 4.04401 51.6559 6.40111 54.6274 9.37259C57.5989 12.3441 59.956 15.8717 61.5641 19.7541C63.1723 23.6366 64 27.7977 64 32L32 32V0Z" fill="#D62828"/>
<path d="M32 64C27.7977 64 23.6365 63.1723 19.7541 61.5641C15.8717 59.956 12.3441 57.5989 9.37258 54.6274C6.40111 51.6559 4.044 48.1283 2.43585 44.2459C0.827704 40.3634 -3.67376e-07 36.2023 0 32L32 32L32 64Z" fill="#50C9CE"/>
<path d="M64 32C64 40.4869 60.6286 48.6263 54.6274 54.6274C48.6263 60.6286 40.4869 64 32 64L32 32L64 32Z" fill="#F77F00"/>
<path d="M0 32C7.41951e-07 23.5131 3.37142 15.3738 9.37258 9.37259C15.3737 3.37142 23.5131 3.94568e-06 32 0V32L0 32Z" fill="#C2EABD"/>
</svg>
