<svg width="287" height="44" viewBox="0 0 287 44" fill="none" xmlns="http://www.w3.org/2000/svg">
<path d="M40.1477 40V28.3636H44.6023C45.4432 28.3636 46.142 28.4962 46.6989 28.7614C47.2595 29.0227 47.678 29.3807 47.9545 29.8352C48.2348 30.2898 48.375 30.8049 48.375 31.3807C48.375 31.8542 48.2841 32.2595 48.1023 32.5966C47.9205 32.9299 47.6761 33.2008 47.3693 33.4091C47.0625 33.6174 46.7197 33.767 46.3409 33.858V33.9716C46.7538 33.9943 47.1496 34.1212 47.5284 34.3523C47.911 34.5795 48.2235 34.9015 48.4659 35.3182C48.7083 35.7348 48.8295 36.2386 48.8295 36.8295C48.8295 37.4318 48.6837 37.9735 48.392 38.4545C48.1004 38.9318 47.661 39.3087 47.0739 39.5852C46.4867 39.8617 45.7481 40 44.858 40H40.1477ZM42.2557 38.2386H44.5227C45.2879 38.2386 45.839 38.0928 46.1761 37.8011C46.517 37.5057 46.6875 37.1269 46.6875 36.6648C46.6875 36.3201 46.6023 36.0095 46.4318 35.733C46.2614 35.4527 46.0189 35.233 45.7045 35.0739C45.3902 34.911 45.0152 34.8295 44.5795 34.8295H42.2557V38.2386ZM42.2557 33.3125H44.3409C44.7045 33.3125 45.0322 33.2462 45.3239 33.1136C45.6155 32.9773 45.8447 32.786 46.0114 32.5398C46.1818 32.2898 46.267 31.9943 46.267 31.6534C46.267 31.2027 46.108 30.8314 45.7898 30.5398C45.4754 30.2481 45.0076 30.1023 44.3864 30.1023H42.2557V33.3125ZM53.8634 40V28.3636H58.227C59.1209 28.3636 59.8709 28.5189 60.477 28.8295C61.0868 29.1402 61.5471 29.5758 61.8577 30.1364C62.1721 30.6932 62.3293 31.3428 62.3293 32.0852C62.3293 32.8314 62.1702 33.4792 61.852 34.0284C61.5376 34.5739 61.0736 34.9962 60.4599 35.2955C59.8463 35.5909 59.0925 35.7386 58.1986 35.7386H55.0906V33.9886H57.9145C58.4372 33.9886 58.8652 33.9167 59.1986 33.7727C59.5319 33.625 59.7781 33.411 59.9372 33.1307C60.1001 32.8466 60.1815 32.4981 60.1815 32.0852C60.1815 31.6723 60.1001 31.3201 59.9372 31.0284C59.7743 30.733 59.5262 30.5095 59.1929 30.358C58.8596 30.2027 58.4296 30.125 57.9031 30.125H55.9713V40H53.8634ZM59.8747 34.7273L62.7554 40H60.4031L57.5736 34.7273H59.8747ZM67.4696 40V28.3636H75.0378V30.1307H69.5776V33.2898H74.6457V35.0568H69.5776V38.233H75.0832V40H67.4696ZM89.9509 28.3636V40H88.0759L82.5929 32.0739H82.4963V40H80.3884V28.3636H82.2747L87.752 36.2955H87.8543V28.3636H89.9509ZM105.01 28.3636V40H103.135L97.6523 32.0739H97.5557V40H95.4477V28.3636H97.3341L102.811 36.2955H102.914V28.3636H105.01ZM110.507 40V28.3636H112.615V33.2898H118.007V28.3636H120.121V40H118.007V35.0568H112.615V40H110.507ZM136.011 34.1818C136.011 35.4356 135.776 36.5095 135.307 37.4034C134.841 38.2936 134.204 38.9754 133.397 39.4489C132.594 39.9223 131.683 40.1591 130.664 40.1591C129.646 40.1591 128.733 39.9223 127.926 39.4489C127.123 38.9716 126.486 38.2879 126.017 37.3977C125.551 36.5038 125.318 35.4318 125.318 34.1818C125.318 32.928 125.551 31.8561 126.017 30.9659C126.486 30.072 127.123 29.3883 127.926 28.9148C128.733 28.4413 129.646 28.2045 130.664 28.2045C131.683 28.2045 132.594 28.4413 133.397 28.9148C134.204 29.3883 134.841 30.072 135.307 30.9659C135.776 31.8561 136.011 32.928 136.011 34.1818ZM133.892 34.1818C133.892 33.2992 133.754 32.5549 133.477 31.9489C133.204 31.339 132.825 30.8788 132.341 30.5682C131.856 30.2538 131.297 30.0966 130.664 30.0966C130.032 30.0966 129.473 30.2538 128.988 30.5682C128.504 30.8788 128.123 31.339 127.846 31.9489C127.574 32.5549 127.437 33.2992 127.437 34.1818C127.437 35.0644 127.574 35.8106 127.846 36.4205C128.123 37.0265 128.504 37.4867 128.988 37.8011C129.473 38.1117 130.032 38.267 130.664 38.267C131.297 38.267 131.856 38.1117 132.341 37.8011C132.825 37.4867 133.204 37.0265 133.477 36.4205C133.754 35.8106 133.892 35.0644 133.892 34.1818ZM141.204 40V28.3636H143.312V38.233H148.437V40H141.204ZM153.251 40V38.6875L159.216 30.1307H153.216V28.3636H161.83V29.6761L155.87 38.233H161.864V40H153.251ZM167.104 40V28.3636H169.212V33.2898H174.604V28.3636H176.718V40H174.604V35.0568H169.212V40H167.104ZM183.705 40H181.455L185.551 28.3636H188.153L192.256 40H190.006L186.898 30.75H186.807L183.705 40ZM183.778 35.4375H189.915V37.1307H183.778V35.4375ZM206.551 28.3636V40H204.676L199.193 32.0739H199.096V40H196.988V28.3636H198.875L204.352 36.2955H204.454V28.3636H206.551ZM215.991 40H212.048V28.3636H216.07C217.226 28.3636 218.218 28.5966 219.048 29.0625C219.881 29.5246 220.521 30.1894 220.968 31.0568C221.415 31.9242 221.639 32.9621 221.639 34.1705C221.639 35.3826 221.413 36.4242 220.962 37.2955C220.516 38.1667 219.87 38.8352 219.025 39.3011C218.184 39.767 217.173 40 215.991 40ZM214.156 38.1761H215.889C216.699 38.1761 217.375 38.0284 217.917 37.733C218.459 37.4337 218.866 36.9886 219.139 36.3977C219.411 35.803 219.548 35.0606 219.548 34.1705C219.548 33.2803 219.411 32.5417 219.139 31.9545C218.866 31.3636 218.462 30.9223 217.928 30.6307C217.398 30.3352 216.739 30.1875 215.951 30.1875H214.156V38.1761ZM226.841 40V28.3636H234.41V30.1307H228.949V33.2898H234.018V35.0568H228.949V38.233H234.455V40H226.841ZM239.76 40V28.3636H241.868V38.233H246.993V40H239.76Z" fill="#4C2719"/>
<path d="M8.78 6C9.03333 6 9.24 5.97 9.4 5.91C9.56667 5.84333 9.71333 5.78 9.84 5.72C9.97333 5.66 10.11 5.63 10.25 5.63C10.4567 5.63 10.61 5.68333 10.71 5.79C10.8167 5.89 10.9067 6.06333 10.98 6.31L11.79 9.27C11.8367 9.41667 11.82 9.54333 11.74 9.65C11.66 9.75 11.5433 9.81333 11.39 9.84C11.2633 9.86 11.14 9.84667 11.02 9.8C10.9067 9.74667 10.81 9.64 10.73 9.48C10.3967 8.78 10.0867 8.25333 9.8 7.9C9.51333 7.54 9.21 7.29667 8.89 7.17C8.57667 7.04333 8.21 6.98 7.79 6.98H5.6V18.37C5.6 18.5167 5.64 18.64 5.72 18.74C5.8 18.84 5.92667 18.9033 6.1 18.93L7 19.05C7.16 19.0833 7.27333 19.14 7.34 19.22C7.41333 19.2933 7.45 19.4033 7.45 19.55C7.45 19.6833 7.40333 19.7933 7.31 19.88C7.21667 19.96 7.07 20 6.87 20H1.62C1.42 20 1.27 19.96 1.17 19.88C1.07667 19.7933 1.03 19.6833 1.03 19.55C1.03 19.31 1.16667 19.1467 1.44 19.06L2.02 18.93C2.18667 18.8833 2.31 18.8167 2.39 18.73C2.47667 18.6367 2.52 18.5167 2.52 18.37V7.63C2.52 7.48333 2.47667 7.36667 2.39 7.28C2.31 7.18667 2.18667 7.11667 2.02 7.07L1.44 6.94C1.16667 6.85333 1.03 6.69 1.03 6.45C1.03 6.31 1.07667 6.2 1.17 6.12C1.27 6.04 1.42 6 1.62 6H8.78ZM4.39 12.83H7.59C8.01 12.83 8.30667 12.7467 8.48 12.58C8.66 12.4133 8.8 12.0867 8.9 11.6C8.94 11.4533 8.99667 11.3467 9.07 11.28C9.15 11.2133 9.25 11.1767 9.37 11.17C9.63667 11.1567 9.80333 11.29 9.87 11.57L10.62 14.57C10.66 14.7367 10.6533 14.8667 10.6 14.96C10.5533 15.0533 10.47 15.1233 10.35 15.17C10.2167 15.21 10.0933 15.21 9.98 15.17C9.87333 15.1233 9.77 15.03 9.67 14.89C9.49667 14.5967 9.33333 14.37 9.18 14.21C9.02667 14.05 8.85333 13.94 8.66 13.88C8.46667 13.82 8.21667 13.79 7.91 13.79H4.39V12.83ZM24.1266 5.65C25.2199 5.65 26.2066 5.83333 27.0866 6.2C27.9732 6.56 28.7299 7.07 29.3566 7.73C29.9899 8.39 30.4766 9.17333 30.8166 10.08C31.1566 10.9867 31.3266 11.99 31.3266 13.09C31.3266 14.1367 31.1566 15.1033 30.8166 15.99C30.4832 16.8767 30.0032 17.6467 29.3766 18.3C28.7499 18.9533 27.9966 19.4633 27.1166 19.83C26.2432 20.19 25.2666 20.37 24.1866 20.37C23.1066 20.37 22.1266 20.19 21.2466 19.83C20.3666 19.4633 19.6099 18.95 18.9766 18.29C18.3499 17.63 17.8666 16.8467 17.5266 15.94C17.1866 15.0267 17.0166 14.02 17.0166 12.92C17.0166 11.88 17.1832 10.9167 17.5166 10.03C17.8566 9.14333 18.3366 8.37333 18.9566 7.72C19.5832 7.06667 20.3332 6.56 21.2066 6.2C22.0799 5.83333 23.0532 5.65 24.1266 5.65ZM28.1566 14.88C28.1566 13.9933 28.0732 13.1433 27.9066 12.33C27.7466 11.51 27.5199 10.76 27.2266 10.08C26.9332 9.39333 26.5899 8.79667 26.1966 8.29C25.8032 7.77667 25.3732 7.38 24.9066 7.1C24.4466 6.81333 23.9666 6.67 23.4666 6.67C22.8066 6.67 22.2332 6.84667 21.7466 7.2C21.2599 7.55333 20.8832 8.06333 20.6166 8.73C20.3499 9.39 20.2166 10.19 20.2166 11.13C20.2166 12.0233 20.2966 12.88 20.4566 13.7C20.6232 14.5133 20.8532 15.2633 21.1466 15.95C21.4399 16.6367 21.7799 17.2367 22.1666 17.75C22.5599 18.2567 22.9866 18.6533 23.4466 18.94C23.9132 19.22 24.3932 19.36 24.8866 19.36C25.5532 19.36 26.1299 19.1833 26.6166 18.83C27.1099 18.4767 27.4899 17.9667 27.7566 17.3C28.0232 16.6333 28.1566 15.8267 28.1566 14.88ZM22.1566 5.13C21.7299 5.13 21.3866 5.01333 21.1266 4.78C20.8732 4.54 20.7466 4.22 20.7466 3.82C20.7466 3.42 20.8732 3.1 21.1266 2.86C21.3866 2.62 21.7299 2.5 22.1566 2.5C22.5832 2.5 22.9199 2.62 23.1666 2.86C23.4199 3.1 23.5466 3.42 23.5466 3.82C23.5466 4.20667 23.4199 4.52333 23.1666 4.77C22.9199 5.01 22.5832 5.13 22.1566 5.13ZM26.1766 5.13C25.7499 5.13 25.4099 5.01333 25.1566 4.78C24.9032 4.54 24.7766 4.22 24.7766 3.82C24.7766 3.42 24.9032 3.1 25.1566 2.86C25.4099 2.62 25.7499 2.5 26.1766 2.5C26.6166 2.5 26.9632 2.62 27.2166 2.86C27.4699 3.1 27.5966 3.42 27.5966 3.82C27.5966 4.20667 27.4699 4.52333 27.2166 4.77C26.9632 5.01 26.6166 5.13 26.1766 5.13ZM39.945 12.86H48.575V13.88H39.945V12.86ZM41.725 18.37C41.725 18.5167 41.765 18.6367 41.845 18.73C41.9317 18.8167 42.055 18.8833 42.215 18.93L42.795 19.06C43.0683 19.1467 43.205 19.31 43.205 19.55C43.205 19.6833 43.1583 19.7933 43.065 19.88C42.9717 19.96 42.825 20 42.625 20H37.735C37.535 20 37.3883 19.96 37.295 19.88C37.2017 19.7933 37.155 19.6833 37.155 19.55C37.155 19.31 37.2917 19.1467 37.565 19.06L38.145 18.93C38.305 18.8833 38.425 18.8167 38.505 18.73C38.5917 18.6367 38.635 18.5167 38.635 18.37V7.63C38.635 7.48333 38.5917 7.36667 38.505 7.28C38.425 7.18667 38.305 7.11667 38.145 7.07L37.565 6.94C37.2917 6.85333 37.155 6.69 37.155 6.45C37.155 6.31 37.2017 6.2 37.295 6.12C37.3883 6.04 37.535 6 37.735 6H42.625C42.825 6 42.9717 6.04 43.065 6.12C43.1583 6.2 43.205 6.31 43.205 6.45C43.205 6.69 43.0683 6.85333 42.795 6.94L42.215 7.07C42.055 7.11667 41.9317 7.18667 41.845 7.28C41.765 7.36667 41.725 7.48333 41.725 7.63V18.37ZM50.585 18.37C50.585 18.5167 50.6283 18.6367 50.715 18.73C50.8017 18.8167 50.925 18.8833 51.085 18.93L51.655 19.06C51.9283 19.1467 52.065 19.31 52.065 19.55C52.065 19.6833 52.0183 19.7933 51.925 19.88C51.8317 19.96 51.685 20 51.485 20H46.605C46.405 20 46.255 19.96 46.155 19.88C46.0617 19.7933 46.015 19.6833 46.015 19.55C46.015 19.31 46.1517 19.1467 46.425 19.06L47.005 18.93C47.165 18.8833 47.285 18.8167 47.365 18.73C47.4517 18.6367 47.495 18.5167 47.495 18.37V7.63C47.495 7.48333 47.4517 7.36667 47.365 7.28C47.285 7.18667 47.165 7.11667 47.005 7.07L46.425 6.94C46.1517 6.85333 46.015 6.69 46.015 6.45C46.015 6.31 46.0617 6.2 46.155 6.12C46.255 6.04 46.405 6 46.605 6H51.485C51.685 6 51.8317 6.04 51.925 6.12C52.0183 6.2 52.065 6.31 52.065 6.45C52.065 6.69 51.9283 6.85333 51.655 6.94L51.085 7.07C50.925 7.11667 50.8017 7.18667 50.715 7.28C50.6283 7.36667 50.585 7.48333 50.585 7.63V18.37ZM70.6477 10.81C70.6477 11.45 70.5043 12.0333 70.2177 12.56C69.931 13.08 69.5243 13.5167 68.9977 13.87C68.471 14.2167 67.8443 14.4567 67.1177 14.59C66.851 14.6367 66.6043 14.6867 66.3777 14.74C66.151 14.7867 65.921 14.83 65.6877 14.87C65.461 14.91 65.2077 14.93 64.9277 14.93C64.5077 14.93 64.1077 14.9 63.7277 14.84C63.3543 14.78 63.011 14.6967 62.6977 14.59C62.3843 14.4767 62.111 14.3467 61.8777 14.2L61.9377 13.32C62.131 13.4533 62.3543 13.57 62.6077 13.67C62.861 13.7633 63.1377 13.8333 63.4377 13.88C63.7443 13.9267 64.0643 13.95 64.3977 13.95C65.3577 13.95 66.1077 13.69 66.6477 13.17C67.1943 12.65 67.4677 11.88 67.4677 10.86C67.4677 10.0933 67.3043 9.41333 66.9777 8.82C66.6577 8.22667 66.2043 7.76 65.6177 7.42C65.0377 7.07333 64.3543 6.9 63.5677 6.9H62.6977V18.36C62.6977 18.5067 62.731 18.6267 62.7977 18.72C62.871 18.8133 62.981 18.8833 63.1277 18.93L63.8277 19.06C63.981 19.12 64.0877 19.1867 64.1477 19.26C64.2077 19.3333 64.2377 19.43 64.2377 19.55C64.2377 19.85 64.041 20 63.6477 20H58.7077C58.5077 20 58.361 19.96 58.2677 19.88C58.1743 19.7933 58.1277 19.6833 58.1277 19.55C58.1277 19.31 58.2643 19.1467 58.5377 19.06L59.1077 18.93C59.2743 18.8833 59.3977 18.8133 59.4777 18.72C59.5643 18.6267 59.6077 18.5067 59.6077 18.36V7.63C59.6077 7.48333 59.5643 7.36667 59.4777 7.28C59.3977 7.18667 59.2743 7.11667 59.1077 7.07L58.5377 6.94C58.2643 6.85333 58.1277 6.69 58.1277 6.45C58.1277 6.31 58.1743 6.2 58.2677 6.12C58.361 6.04 58.5077 6 58.7077 6H63.6777C65.171 6 66.4343 6.20667 67.4677 6.62C68.5077 7.02667 69.2977 7.59333 69.8377 8.32C70.3777 9.04 70.6477 9.87 70.6477 10.81ZM64.8877 14.53L67.9077 14.18L70.5077 18.35C70.6277 18.5433 70.751 18.6933 70.8777 18.8C71.011 18.9067 71.1877 18.99 71.4077 19.05C71.6077 19.1167 71.7443 19.1867 71.8177 19.26C71.891 19.3333 71.9277 19.43 71.9277 19.55C71.9277 19.6833 71.8777 19.7933 71.7777 19.88C71.6777 19.96 71.5277 20 71.3277 20H67.0477C66.6677 20 66.4777 19.85 66.4777 19.55C66.4777 19.47 66.501 19.4 66.5477 19.34C66.5943 19.28 66.6677 19.23 66.7677 19.19L67.0677 19.11C67.2077 19.0433 67.2877 18.9667 67.3077 18.88C67.3277 18.7867 67.291 18.6533 67.1977 18.48L64.8877 14.53ZM81.6781 18.37C81.6781 18.5167 81.7181 18.6367 81.7981 18.73C81.8848 18.8167 82.0081 18.8833 82.1681 18.93L82.7481 19.06C83.0215 19.1467 83.1581 19.31 83.1581 19.55C83.1581 19.6833 83.1115 19.7933 83.0181 19.88C82.9248 19.96 82.7748 20 82.5681 20H77.6881C77.4881 20 77.3415 19.96 77.2481 19.88C77.1548 19.7933 77.1081 19.6833 77.1081 19.55C77.1081 19.31 77.2448 19.1467 77.5181 19.06L78.0881 18.93C78.2548 18.8833 78.3781 18.8167 78.4581 18.73C78.5448 18.6367 78.5881 18.5167 78.5881 18.37V7.63C78.5881 7.48333 78.5448 7.36667 78.4581 7.28C78.3781 7.18667 78.2548 7.11667 78.0881 7.07L77.5181 6.94C77.2448 6.85333 77.1081 6.69 77.1081 6.45C77.1081 6.31 77.1548 6.2 77.2481 6.12C77.3415 6.04 77.4881 6 77.6881 6H82.5681C82.7748 6 82.9248 6.04 83.0181 6.12C83.1115 6.2 83.1581 6.31 83.1581 6.45C83.1581 6.69 83.0215 6.85333 82.7481 6.94L82.1681 7.07C82.0081 7.11667 81.8848 7.18667 81.7981 7.28C81.7181 7.36667 81.6781 7.48333 81.6781 7.63V18.37ZM93.5636 19.55C93.5636 19.6833 93.5136 19.79 93.4136 19.87C93.3203 19.95 93.1736 19.9933 92.9736 20H89.6236C89.4236 19.9933 89.2736 19.95 89.1736 19.87C89.0736 19.79 89.0236 19.6833 89.0236 19.55C89.0236 19.3233 89.1703 19.1567 89.4636 19.05L89.9336 18.91C90.2403 18.7967 90.4503 18.67 90.5636 18.53C90.6769 18.3833 90.7336 18.1533 90.7336 17.84V9.09C90.7336 8.88333 90.7069 8.71667 90.6536 8.59C90.6069 8.45667 90.4903 8.27333 90.3036 8.04L89.4536 6.96C89.3469 6.82 89.2736 6.71333 89.2336 6.64C89.1936 6.56 89.1736 6.48 89.1736 6.4C89.1736 6.26667 89.2169 6.16667 89.3036 6.1C89.3969 6.03333 89.5169 6 89.6636 6H91.9836C92.1769 6 92.3369 6.03333 92.4636 6.1C92.5903 6.16667 92.7236 6.29333 92.8636 6.48L100.604 16.84L100.144 17.97V8.16C100.144 7.85333 100.09 7.63 99.9836 7.49C99.8769 7.34333 99.6636 7.21 99.3436 7.09L98.8536 6.95C98.5669 6.83 98.4236 6.66333 98.4236 6.45C98.4236 6.31 98.4736 6.2 98.5736 6.12C98.6736 6.04 98.8236 6 99.0236 6H102.364C102.564 6 102.714 6.04 102.814 6.12C102.914 6.2 102.964 6.31 102.964 6.45C102.964 6.67 102.82 6.83667 102.534 6.95L102.054 7.09C101.754 7.19667 101.544 7.32333 101.424 7.47C101.31 7.61 101.254 7.84 101.254 8.16V17.17C101.254 17.3833 101.274 17.5633 101.314 17.71C101.354 17.8567 101.42 17.9967 101.514 18.13L102.134 18.95C102.254 19.11 102.327 19.2333 102.354 19.32C102.387 19.4067 102.404 19.49 102.404 19.57C102.404 19.7033 102.357 19.81 102.264 19.89C102.177 19.9633 102.05 20 101.884 20H99.2236C98.9103 20 98.7536 19.8733 98.7536 19.62C98.7536 19.52 98.7336 19.4233 98.6936 19.33C98.6536 19.23 98.5403 19.0567 98.3536 18.81L90.9136 8.83L91.8436 8.2V17.84C91.8436 18.14 91.8969 18.3633 92.0036 18.51C92.1103 18.6567 92.3236 18.79 92.6436 18.91L93.1336 19.05C93.4203 19.1633 93.5636 19.33 93.5636 19.55ZM120.954 19.74C120.954 19.96 120.907 20.12 120.814 20.22C120.727 20.32 120.59 20.37 120.404 20.37C120.237 20.37 120.087 20.3167 119.954 20.21C119.827 20.1033 119.707 19.98 119.594 19.84C119.48 19.7 119.367 19.5767 119.254 19.47C119.147 19.3567 119.034 19.3 118.914 19.3C118.774 19.3 118.61 19.3567 118.424 19.47C118.237 19.5767 118.004 19.7 117.724 19.84C117.45 19.9733 117.114 20.0933 116.714 20.2C116.32 20.3067 115.847 20.36 115.294 20.36C114.22 20.36 113.257 20.1833 112.404 19.83C111.55 19.4767 110.824 18.9767 110.224 18.33C109.624 17.6767 109.167 16.9033 108.854 16.01C108.54 15.1167 108.384 14.1267 108.384 13.04C108.384 11.9733 108.557 10.9933 108.904 10.1C109.257 9.2 109.75 8.42 110.384 7.76C111.017 7.09333 111.757 6.57667 112.604 6.21C113.457 5.84333 114.387 5.66 115.394 5.66C116.1 5.66 116.677 5.72667 117.124 5.86C117.57 5.98667 117.92 6.11667 118.174 6.25C118.434 6.38333 118.637 6.45 118.784 6.45C118.95 6.45 119.08 6.39333 119.174 6.28C119.267 6.16 119.36 6.04333 119.454 5.93C119.554 5.81667 119.687 5.76 119.854 5.76C119.967 5.76 120.06 5.79667 120.134 5.87C120.214 5.93667 120.28 6.06 120.334 6.24L121.374 9.73C121.42 9.88333 121.404 10.02 121.324 10.14C121.25 10.2533 121.14 10.3233 120.994 10.35C120.84 10.3833 120.7 10.37 120.574 10.31C120.454 10.25 120.36 10.14 120.294 9.98C119.927 9.16667 119.51 8.52 119.044 8.04C118.584 7.56 118.08 7.22 117.534 7.02C116.987 6.81333 116.4 6.71 115.774 6.71C114.934 6.71 114.19 6.94667 113.544 7.42C112.897 7.88667 112.39 8.55333 112.024 9.42C111.664 10.28 111.484 11.2967 111.484 12.47C111.484 13.87 111.687 15.0533 112.094 16.02C112.507 16.9867 113.067 17.7233 113.774 18.23C114.487 18.73 115.29 18.98 116.184 18.98C116.497 18.98 116.777 18.95 117.024 18.89C117.27 18.83 117.477 18.7433 117.644 18.63C117.817 18.51 117.95 18.37 118.044 18.21C118.137 18.0433 118.184 17.8567 118.184 17.65V15.18C118.184 15.0267 118.144 14.91 118.064 14.83C117.984 14.75 117.83 14.6867 117.604 14.64L116.954 14.51C116.794 14.47 116.67 14.4133 116.584 14.34C116.497 14.26 116.454 14.16 116.454 14.04C116.454 13.9067 116.504 13.8033 116.604 13.73C116.704 13.65 116.854 13.61 117.054 13.61H121.714C121.92 13.61 122.07 13.65 122.164 13.73C122.264 13.8033 122.314 13.9067 122.314 14.04C122.314 14.1533 122.28 14.2433 122.214 14.31C122.147 14.3767 122.04 14.4367 121.894 14.49L121.494 14.6C121.307 14.6533 121.17 14.7233 121.084 14.81C120.997 14.89 120.954 15.0133 120.954 15.18V19.74ZM142.024 6.52C142.517 6.52 142.917 6.74 143.224 7.18C143.531 7.61333 143.684 8.22 143.684 9C143.684 9.81333 143.541 10.4967 143.254 11.05C142.967 11.5967 142.521 11.9333 141.914 12.06L142.004 12.47C143.071 12.3233 143.937 12.0933 144.604 11.78C145.271 11.46 145.757 11.06 146.064 10.58C146.371 10.0933 146.524 9.54 146.524 8.92C146.524 8.3 146.347 7.75333 145.994 7.28C145.647 6.80667 145.154 6.43667 144.514 6.17C143.881 5.89667 143.134 5.76 142.274 5.76C141.261 5.76 140.394 5.93667 139.674 6.29C138.954 6.63667 138.404 7.11 138.024 7.71C137.644 8.30333 137.454 8.97 137.454 9.71C137.454 10.5167 137.657 11.2133 138.064 11.8C138.477 12.38 139.084 12.8133 139.884 13.1C140.117 13.1733 140.361 13.32 140.614 13.54C140.874 13.76 141.207 14.1167 141.614 14.61L145.484 19.43C145.651 19.63 145.827 19.77 146.014 19.85C146.207 19.93 146.437 19.97 146.704 19.97H149.364C149.571 19.97 149.727 19.93 149.834 19.85C149.947 19.7633 150.004 19.6433 150.004 19.49C150.004 19.3433 149.954 19.2333 149.854 19.16C149.761 19.0867 149.624 19.0433 149.444 19.03C149.231 19.0033 149.044 18.9467 148.884 18.86C148.724 18.7733 148.564 18.63 148.404 18.43L144.564 13.63C144.291 13.29 144.034 13.01 143.794 12.79C143.554 12.57 143.304 12.39 143.044 12.25C142.784 12.1033 142.491 11.9767 142.164 11.87C141.537 11.6633 141.077 11.29 140.784 10.75C140.497 10.21 140.354 9.57667 140.354 8.85C140.354 8.17667 140.497 7.62 140.784 7.18C141.077 6.74 141.491 6.52 142.024 6.52ZM140.734 13.21L140.674 12.83C139.654 12.9033 138.791 13.1267 138.084 13.5C137.384 13.8667 136.851 14.3333 136.484 14.9C136.117 15.46 135.934 16.0667 135.934 16.72C135.934 17.36 136.101 17.95 136.434 18.49C136.774 19.0233 137.267 19.4533 137.914 19.78C138.561 20.1 139.354 20.26 140.294 20.26C141.367 20.26 142.264 20.04 142.984 19.6C143.704 19.1533 144.324 18.5333 144.844 17.74L144.244 17.25C143.911 17.81 143.507 18.2233 143.034 18.49C142.561 18.75 142.027 18.88 141.434 18.88C140.914 18.88 140.461 18.7567 140.074 18.51C139.694 18.2567 139.401 17.9067 139.194 17.46C138.987 17.0067 138.884 16.4767 138.884 15.87C138.884 15.45 138.961 15.0467 139.114 14.66C139.267 14.2667 139.481 13.9367 139.754 13.67C140.034 13.4033 140.361 13.25 140.734 13.21ZM146.024 16.39L146.534 16.97L147.914 14.78C148.227 14.3467 148.497 14.0267 148.724 13.82C148.951 13.6133 149.211 13.4533 149.504 13.34C149.671 13.2533 149.784 13.1667 149.844 13.08C149.911 12.9933 149.944 12.8933 149.944 12.78C149.944 12.4733 149.747 12.32 149.354 12.32H146.444C146.284 12.32 146.147 12.3667 146.034 12.46C145.927 12.5533 145.874 12.6633 145.874 12.79C145.874 12.8767 145.901 12.9567 145.954 13.03C146.014 13.1033 146.104 13.16 146.224 13.2L146.754 13.35C146.947 13.4167 147.081 13.52 147.154 13.66C147.227 13.7933 147.241 13.96 147.194 14.16C147.154 14.3533 147.051 14.57 146.884 14.81L146.024 16.39ZM169.305 20.31C168.758 20.31 168.288 20.2433 167.895 20.11C167.502 19.9767 167.178 19.8467 166.925 19.72C166.678 19.5867 166.495 19.52 166.375 19.52C166.248 19.52 166.142 19.5633 166.055 19.65C165.968 19.73 165.885 19.8233 165.805 19.93C165.725 20.0367 165.642 20.13 165.555 20.21C165.468 20.29 165.362 20.33 165.235 20.33C165.102 20.33 164.988 20.2867 164.895 20.2C164.808 20.12 164.748 19.9867 164.715 19.8L164.025 16.5C164.005 16.36 164.025 16.24 164.085 16.14C164.145 16.0333 164.245 15.9567 164.385 15.91C164.538 15.8567 164.672 15.86 164.785 15.92C164.905 15.98 165.008 16.0933 165.095 16.26C165.482 17.02 165.892 17.6233 166.325 18.07C166.758 18.5167 167.208 18.8367 167.675 19.03C168.142 19.2167 168.618 19.31 169.105 19.31C169.792 19.31 170.332 19.1333 170.725 18.78C171.118 18.42 171.315 17.94 171.315 17.34C171.322 16.9533 171.235 16.6033 171.055 16.29C170.875 15.97 170.535 15.6633 170.035 15.37C169.535 15.0767 168.798 14.7733 167.825 14.46C166.812 14.1267 165.998 13.7467 165.385 13.32C164.778 12.8933 164.335 12.3933 164.055 11.82C163.782 11.24 163.645 10.5733 163.645 9.82C163.645 9.01333 163.838 8.30333 164.225 7.69C164.612 7.07667 165.152 6.6 165.845 6.26C166.545 5.91333 167.358 5.74 168.285 5.74C168.885 5.74 169.382 5.80333 169.775 5.93C170.168 6.05 170.488 6.17333 170.735 6.3C170.988 6.42667 171.198 6.49 171.365 6.49C171.512 6.49 171.625 6.42667 171.705 6.3C171.792 6.17333 171.882 6.04333 171.975 5.91C172.068 5.77667 172.208 5.71 172.395 5.71C172.535 5.71 172.652 5.75667 172.745 5.85C172.845 5.93667 172.928 6.10333 172.995 6.35L173.945 9.66C173.992 9.83333 173.985 9.98667 173.925 10.12C173.872 10.2533 173.768 10.3433 173.615 10.39C173.462 10.4367 173.325 10.43 173.205 10.37C173.092 10.31 172.995 10.2067 172.915 10.06C172.495 9.22667 172.048 8.57 171.575 8.09C171.108 7.60333 170.622 7.25667 170.115 7.05C169.615 6.83667 169.108 6.73 168.595 6.73C167.915 6.73 167.372 6.92667 166.965 7.32C166.565 7.71333 166.365 8.22667 166.365 8.86C166.365 9.24667 166.452 9.60333 166.625 9.93C166.805 10.2567 167.138 10.5767 167.625 10.89C168.118 11.2033 168.828 11.53 169.755 11.87C170.795 12.2433 171.618 12.6433 172.225 13.07C172.832 13.4967 173.268 13.9767 173.535 14.51C173.802 15.0433 173.935 15.6567 173.935 16.35C173.928 17.0767 173.742 17.74 173.375 18.34C173.015 18.94 172.492 19.42 171.805 19.78C171.118 20.1333 170.285 20.31 169.305 20.31ZM192.243 16.3C192.243 16.7733 192.113 17.25 191.853 17.73C191.593 18.21 191.22 18.65 190.733 19.05C190.253 19.45 189.667 19.77 188.973 20.01C188.287 20.25 187.51 20.37 186.643 20.37C185.203 20.37 183.96 20.06 182.913 19.44C181.873 18.82 181.067 17.9633 180.493 16.87C179.927 15.77 179.643 14.51 179.643 13.09C179.643 12.0167 179.81 11.03 180.143 10.13C180.483 9.22333 180.957 8.43667 181.563 7.77C182.177 7.09667 182.893 6.57667 183.713 6.21C184.533 5.83667 185.427 5.65 186.393 5.65C187.06 5.65 187.6 5.71667 188.013 5.85C188.433 5.98333 188.763 6.11667 189.003 6.25C189.25 6.38333 189.44 6.45 189.573 6.45C189.74 6.45 189.867 6.39333 189.953 6.28C190.047 6.16 190.14 6.04333 190.233 5.93C190.327 5.81 190.457 5.75 190.623 5.75C190.737 5.75 190.83 5.78667 190.903 5.86C190.983 5.93333 191.05 6.06 191.103 6.24L192.153 9.7C192.2 9.85333 192.183 9.99 192.103 10.11C192.03 10.2233 191.92 10.2967 191.773 10.33C191.62 10.3633 191.48 10.35 191.353 10.29C191.233 10.2233 191.137 10.1133 191.063 9.96C190.703 9.15333 190.303 8.51333 189.863 8.04C189.43 7.56667 188.96 7.22667 188.453 7.02C187.947 6.81333 187.4 6.71 186.813 6.71C186.213 6.71 185.667 6.84333 185.173 7.11C184.68 7.37667 184.253 7.76333 183.893 8.27C183.533 8.77 183.253 9.37333 183.053 10.08C182.86 10.78 182.763 11.5667 182.763 12.44C182.763 13.7867 182.97 14.9267 183.383 15.86C183.797 16.7933 184.363 17.5 185.083 17.98C185.81 18.46 186.637 18.7 187.563 18.7C188.457 18.7 189.23 18.4867 189.883 18.06C190.543 17.6333 191.05 17.03 191.403 16.25C191.483 16.1033 191.567 16.0033 191.653 15.95C191.747 15.8967 191.847 15.88 191.953 15.9C192.053 15.9133 192.127 15.9567 192.173 16.03C192.22 16.0967 192.243 16.1867 192.243 16.3ZM200.726 12.86H209.356V13.88H200.726V12.86ZM202.506 18.37C202.506 18.5167 202.546 18.6367 202.626 18.73C202.713 18.8167 202.836 18.8833 202.996 18.93L203.576 19.06C203.85 19.1467 203.986 19.31 203.986 19.55C203.986 19.6833 203.94 19.7933 203.846 19.88C203.753 19.96 203.606 20 203.406 20H198.516C198.316 20 198.17 19.96 198.076 19.88C197.983 19.7933 197.936 19.6833 197.936 19.55C197.936 19.31 198.073 19.1467 198.346 19.06L198.926 18.93C199.086 18.8833 199.206 18.8167 199.286 18.73C199.373 18.6367 199.416 18.5167 199.416 18.37V7.63C199.416 7.48333 199.373 7.36667 199.286 7.28C199.206 7.18667 199.086 7.11667 198.926 7.07L198.346 6.94C198.073 6.85333 197.936 6.69 197.936 6.45C197.936 6.31 197.983 6.2 198.076 6.12C198.17 6.04 198.316 6 198.516 6H203.406C203.606 6 203.753 6.04 203.846 6.12C203.94 6.2 203.986 6.31 203.986 6.45C203.986 6.69 203.85 6.85333 203.576 6.94L202.996 7.07C202.836 7.11667 202.713 7.18667 202.626 7.28C202.546 7.36667 202.506 7.48333 202.506 7.63V18.37ZM211.366 18.37C211.366 18.5167 211.41 18.6367 211.496 18.73C211.583 18.8167 211.706 18.8833 211.866 18.93L212.436 19.06C212.71 19.1467 212.846 19.31 212.846 19.55C212.846 19.6833 212.8 19.7933 212.706 19.88C212.613 19.96 212.466 20 212.266 20H207.386C207.186 20 207.036 19.96 206.936 19.88C206.843 19.7933 206.796 19.6833 206.796 19.55C206.796 19.31 206.933 19.1467 207.206 19.06L207.786 18.93C207.946 18.8833 208.066 18.8167 208.146 18.73C208.233 18.6367 208.276 18.5167 208.276 18.37V7.63C208.276 7.48333 208.233 7.36667 208.146 7.28C208.066 7.18667 207.946 7.11667 207.786 7.07L207.206 6.94C206.933 6.85333 206.796 6.69 206.796 6.45C206.796 6.31 206.843 6.2 206.936 6.12C207.036 6.04 207.186 6 207.386 6H212.266C212.466 6 212.613 6.04 212.706 6.12C212.8 6.2 212.846 6.31 212.846 6.45C212.846 6.69 212.71 6.85333 212.436 6.94L211.866 7.07C211.706 7.11667 211.583 7.18667 211.496 7.28C211.41 7.36667 211.366 7.48333 211.366 7.63V18.37ZM227.679 16.15L226.689 16.48L230.429 6.89C230.556 6.55667 230.702 6.32667 230.869 6.2C231.042 6.06667 231.282 6 231.589 6H234.489C234.689 6 234.839 6.04 234.939 6.12C235.039 6.2 235.089 6.31 235.089 6.45C235.089 6.57 235.056 6.67 234.989 6.75C234.922 6.83 234.816 6.89333 234.669 6.94L234.149 7.08C233.922 7.14 233.769 7.23 233.689 7.35C233.616 7.46333 233.586 7.65333 233.599 7.92L234.359 18.23C234.372 18.4567 234.419 18.6167 234.499 18.71C234.586 18.7967 234.726 18.87 234.919 18.93L235.429 19.06C235.569 19.1 235.669 19.16 235.729 19.24C235.796 19.32 235.829 19.4167 235.829 19.53C235.829 19.6633 235.779 19.7767 235.679 19.87C235.579 19.9567 235.429 20 235.229 20H230.399C230.199 20 230.049 19.96 229.949 19.88C229.849 19.7933 229.799 19.6833 229.799 19.55C229.799 19.4367 229.829 19.34 229.889 19.26C229.956 19.1733 230.066 19.1067 230.219 19.06L230.739 18.93C230.972 18.8633 231.129 18.78 231.209 18.68C231.289 18.58 231.322 18.43 231.309 18.23L230.479 7.67L231.379 7.6L227.129 18.63C227.009 18.9433 226.886 19.1467 226.759 19.24C226.632 19.3333 226.486 19.38 226.319 19.38C226.199 19.38 226.086 19.3633 225.979 19.33C225.879 19.2967 225.782 19.2233 225.689 19.11C225.602 18.9967 225.512 18.8233 225.419 18.59L221.089 7.9L221.959 7.58L221.089 17.91C221.062 18.1967 221.122 18.4133 221.269 18.56C221.416 18.7067 221.619 18.8333 221.879 18.94L222.379 19.11C222.479 19.1567 222.559 19.2133 222.619 19.28C222.679 19.34 222.709 19.4233 222.709 19.53C222.709 19.67 222.659 19.7833 222.559 19.87C222.466 19.9567 222.316 20 222.109 20H218.919C218.712 20 218.559 19.96 218.459 19.88C218.366 19.7933 218.319 19.6833 218.319 19.55C218.319 19.41 218.359 19.3067 218.439 19.24C218.526 19.1667 218.639 19.1 218.779 19.04L219.179 18.91C219.412 18.83 219.596 18.7133 219.729 18.56C219.869 18.4067 219.952 18.1867 219.979 17.9L220.809 8.12C220.836 7.80667 220.802 7.57 220.709 7.41C220.622 7.25 220.466 7.14 220.239 7.08L219.739 6.96C219.586 6.91333 219.472 6.85 219.399 6.77C219.332 6.69 219.299 6.58667 219.299 6.46C219.299 6.15333 219.502 6 219.909 6H222.779C223.059 6 223.286 6.05667 223.459 6.17C223.632 6.28333 223.786 6.51 223.919 6.85L227.679 16.15ZM245.936 18.37C245.936 18.5167 245.976 18.6367 246.056 18.73C246.143 18.8167 246.266 18.8833 246.426 18.93L247.006 19.06C247.279 19.1467 247.416 19.31 247.416 19.55C247.416 19.6833 247.369 19.7933 247.276 19.88C247.183 19.96 247.033 20 246.826 20H241.946C241.746 20 241.599 19.96 241.506 19.88C241.413 19.7933 241.366 19.6833 241.366 19.55C241.366 19.31 241.503 19.1467 241.776 19.06L242.346 18.93C242.513 18.8833 242.636 18.8167 242.716 18.73C242.803 18.6367 242.846 18.5167 242.846 18.37V7.63C242.846 7.48333 242.803 7.36667 242.716 7.28C242.636 7.18667 242.513 7.11667 242.346 7.07L241.776 6.94C241.503 6.85333 241.366 6.69 241.366 6.45C241.366 6.31 241.413 6.2 241.506 6.12C241.599 6.04 241.746 6 241.946 6H246.826C247.033 6 247.183 6.04 247.276 6.12C247.369 6.2 247.416 6.31 247.416 6.45C247.416 6.69 247.279 6.85333 247.006 6.94L246.426 7.07C246.266 7.11667 246.143 7.18667 246.056 7.28C245.976 7.36667 245.936 7.48333 245.936 7.63V18.37ZM253.471 19.55C253.471 19.31 253.608 19.1467 253.881 19.06L254.461 18.93C254.628 18.8833 254.751 18.8167 254.831 18.73C254.918 18.6367 254.961 18.5167 254.961 18.37V7.63C254.961 7.48333 254.918 7.36667 254.831 7.28C254.751 7.18667 254.628 7.11667 254.461 7.07L253.881 6.94C253.608 6.85333 253.471 6.69 253.471 6.45C253.471 6.31 253.518 6.2 253.611 6.12C253.711 6.04 253.861 6 254.061 6H259.351C260.591 6 261.715 6.18333 262.721 6.55C263.735 6.91 264.605 7.42333 265.331 8.09C266.065 8.75 266.628 9.53333 267.021 10.44C267.415 11.3467 267.611 12.35 267.611 13.45C267.611 14.7167 267.318 15.8433 266.731 16.83C266.145 17.8167 265.305 18.5933 264.211 19.16C263.118 19.72 261.805 20 260.271 20H254.061C253.861 20 253.711 19.96 253.611 19.88C253.518 19.7933 253.471 19.6833 253.471 19.55ZM259.991 19.03C260.878 19.03 261.651 18.8233 262.311 18.41C262.978 17.99 263.495 17.3633 263.861 16.53C264.228 15.69 264.411 14.64 264.411 13.38C264.411 12.3933 264.288 11.5067 264.041 10.72C263.795 9.92667 263.435 9.25333 262.961 8.7C262.488 8.14 261.918 7.71333 261.251 7.42C260.591 7.12 259.848 6.97 259.021 6.97H258.041V18.13C258.041 18.4367 258.131 18.6633 258.311 18.81C258.491 18.9567 258.755 19.03 259.101 19.03H259.991ZM275.769 6H282.859C283.106 6 283.306 5.97 283.459 5.91C283.619 5.84333 283.759 5.78 283.879 5.72C284.006 5.66 284.139 5.63 284.279 5.63C284.493 5.63 284.656 5.68333 284.769 5.79C284.883 5.89 284.969 6.06667 285.029 6.32L285.699 9.56C285.739 9.74667 285.726 9.9 285.659 10.02C285.599 10.1333 285.489 10.2067 285.329 10.24C285.183 10.2667 285.053 10.2533 284.939 10.2C284.826 10.14 284.729 10.03 284.649 9.87C284.303 9.08333 284.003 8.48667 283.749 8.08C283.496 7.67333 283.243 7.39667 282.989 7.25C282.736 7.09667 282.433 7.02 282.079 7.02H280.859V18.37C280.859 18.5167 280.899 18.6367 280.979 18.73C281.066 18.8167 281.189 18.8833 281.349 18.93L281.929 19.06C282.203 19.1467 282.339 19.31 282.339 19.55C282.339 19.85 282.146 20 281.759 20H276.869C276.669 20 276.523 19.96 276.429 19.88C276.336 19.7933 276.289 19.6833 276.289 19.55C276.289 19.31 276.426 19.1467 276.699 19.06L277.279 18.93C277.439 18.8833 277.559 18.8167 277.639 18.73C277.726 18.6367 277.769 18.5167 277.769 18.37V7.02H276.549C276.203 7.02 275.903 7.09667 275.649 7.25C275.396 7.39667 275.143 7.67333 274.889 8.08C274.636 8.48667 274.333 9.08333 273.979 9.87C273.906 10.03 273.809 10.14 273.689 10.2C273.576 10.2533 273.446 10.2667 273.299 10.24C273.146 10.2067 273.036 10.1333 272.969 10.02C272.909 9.9 272.896 9.74667 272.929 9.56L273.599 6.32C273.659 6.06667 273.746 5.89 273.859 5.79C273.973 5.68333 274.136 5.63 274.349 5.63C274.489 5.63 274.619 5.66 274.739 5.72C274.866 5.78 275.006 5.84333 275.159 5.91C275.319 5.97 275.523 6 275.769 6Z" fill="#4C2719"/>
</svg>
